<svg xmlns="http://www.w3.org/2000/svg" xmlns:xlink="http://www.w3.org/1999/xlink" width="45" height="45" viewBox="-100 0 250 250"><g transform="translate(50 50) scale(0.69 0.69) rotate(90) translate(-50 -50)" style="fill:#334455"><svg fill="#334455" xmlns:dc="http://purl.org/dc/elements/1.1/" xmlns:cc="http://creativecommons.org/ns#" xmlns:rdf="http://www.w3.org/1999/02/22-rdf-syntax-ns#" xmlns:svg="http://www.w3.org/2000/svg" xmlns="http://www.w3.org/2000/svg" xmlns:sodipodi="http://sodipodi.sourceforge.net/DTD/sodipodi-0.dtd" xmlns:inkscape="http://www.inkscape.org/namespaces/inkscape" viewBox="0 0 80 80" version="1.1" x="0px" y="0px"><path style="text-indent:0;text-transform:none;direction:ltr;block-progression:tb;baseline-shift:baseline;color:#000000;enable-background:accumulate;" d="m 32.1875,1.875 c -0.91438,0.00858 -1.819456,0.2784497 -2.53125,0.875 -0.711794,0.5965503 -1.186162,1.5129444 -1.1875,2.65625 l -1.03125,29.125 0,0.03125 c -0.03081,0.105166 -0.496479,1.60139 -1.1875,3.5625 -0.714666,2.028214 -1.662249,4.436123 -2.53125,5.8125 -0.633375,1.003176 -1.595533,2.109541 -2.34375,3.25 -0.748217,1.140459 -1.327993,2.361686 -0.90625,3.59375 2.181468,6.372851 4.061362,10.584339 5.40625,13.28125 0.672444,1.348455 1.200394,2.321784 1.5625,3 0.181053,0.339108 0.321633,0.593795 0.40625,0.78125 0.08462,0.187455 0.09375,0.319053 0.09375,0.25 l 0,0.25 0.21875,0.15625 c 3.365721,2.709277 6.734838,5.502348 10.71875,6.96875 3.983912,1.466402 8.568019,1.568058 14.09375,-1 L 53.125,74.40625 53.21875,74.25 c 3.992367,-7.063418 5.765817,-13.193596 6.5625,-17.5625 0.776766,-4.259682 0.603043,-6.80894 0.59375,-6.9375 0.0027,-0.03279 -0.0026,-0.06101 0,-0.09375 0.254225,-3.252778 -0.343264,-6.238352 -2.15625,-8.5 C 56.420885,38.913465 53.460086,37.448292 49.25,37.125 c -1.044578,-2.097931 -2.63753,-3.007104 -4,-3.21875 -1.047873,-0.162776 -1.487543,0.02251 -1.90625,0.125 0.06285,-0.703146 0.150179,-2.309672 -0.5,-3.96875 -0.405352,-1.034347 -1.161452,-2.007318 -2.40625,-2.34375 -1.073552,-0.290149 -2.489645,0.0197 -4.21875,0.8125 L 36,5.3125 C 35.97364,4.1869131 35.473717,3.2637971 34.75,2.6875 34.026283,2.1112029 33.10188,1.8664234 32.1875,1.875 z m 0,1.03125 c 0.698782,-0.00655 1.40312,0.2243567 1.90625,0.625 0.496299,0.395204 0.847205,0.9592264 0.875,1.78125 l 0,0.03125 0.1875,23.9375 0,0.875 L 35.9375,29.75 c 2.016962,-1.082272 3.349437,-1.23495 4.21875,-1 0.869313,0.23495 1.387655,0.842637 1.71875,1.6875 0.66219,1.689727 0.40625,4.0625 0.40625,4.0625 l -0.125,0.84375 0.8125,-0.28125 c 0,0 0.951798,-0.307245 2.125,-0.125 1.173202,0.182245 2.505119,0.819421 3.40625,2.90625 l 0.125,0.28125 0.34375,0.03125 c 4.133466,0.272581 6.818201,1.63622 8.4375,3.65625 1.619299,2.02003 2.196861,4.734998 1.9375,7.84375 l 0,0.0625 0,0.03125 c 0,0 0.18404,2.484698 -0.59375,6.75 -0.77153,4.230972 -2.510462,10.179114 -6.375,17.0625 -5.239618,2.392312 -9.403974,2.275889 -13.125,0.90625 C 35.522929,73.096886 32.244363,70.437202 28.90625,67.75 28.87167,67.643512 28.865321,67.523266 28.8125,67.40625 28.706859,67.172219 28.558929,66.906994 28.375,66.5625 28.007142,65.873511 27.475711,64.923689 26.8125,63.59375 25.486079,60.933871 23.604473,56.768003 21.4375,50.4375 21.189451,49.71286 21.560008,48.80171 22.25,47.75 c 0.689992,-1.05171 1.643268,-2.171785 2.34375,-3.28125 0.973411,-1.541747 1.931271,-3.942519 2.65625,-6 0.724979,-2.057481 1.21875,-3.75 1.21875,-3.75 l 0.03125,-0.0625 0,-0.0625 1,-29.15625 0,-0.03125 c 0.001,-0.864063 0.319297,-1.4303997 0.8125,-1.84375 0.493203,-0.4133503 1.176218,-0.6496957 1.875,-0.65625 z" fill="#334455" fill-opacity="1" stroke="none" marker="none" visibility="visible" display="inline" overflow="visible"></path><path style="text-indent:0;text-transform:none;direction:ltr;block-progression:tb;baseline-shift:baseline;color:#000000;enable-background:accumulate;" d="m 35.71875,28.6875 c 0,0 -3.206473,3.289062 -7.875,5.375 L 28.28125,35 c 4.879893,-2.180378 8.1875,-5.5625 8.1875,-5.5625 l -0.75,-0.75 z" fill="#334455" fill-opacity="1" stroke="none" marker="none" visibility="visible" display="inline" overflow="visible"></path><path style="text-indent:0;text-transform:none;direction:ltr;block-progression:tb;baseline-shift:baseline;color:#000000;enable-background:accumulate;" d="m 42.375,34.21875 c -2.981738,4.247842 -5.336207,7.924146 -10.0625,10.125 L 32.75,45.3125 c 5.013503,-2.334598 7.503286,-6.275344 10.46875,-10.5 L 42.375,34.21875 z" fill="#334455" fill-opacity="1" stroke="none" marker="none" visibility="visible" display="inline" overflow="visible"></path><path style="text-indent:0;text-transform:none;direction:ltr;block-progression:tb;baseline-shift:baseline;color:#000000;enable-background:accumulate;" d="M 41.65625,36.96875 40.59375,37 l 0.5,15.59375 0,0.03125 c 0.03872,0.438848 -0.13887,1.102894 -0.53125,1.6875 -0.39238,0.584606 -0.969296,1.076894 -1.625,1.34375 -0.655704,0.266856 -1.386394,0.310962 -2.1875,-0.0625 -0.785285,-0.366087 -1.637469,-1.164859 -2.5,-2.625 l -0.4375,-8.25 -1.03125,0.0625 0.40625,8.40625 0.03125,0.125 0.0625,0.125 c 0.952357,1.643283 1.973829,2.632048 3.03125,3.125 1.057421,0.492952 2.14267,0.455381 3.03125,0.09375 0.88858,-0.361631 1.597269,-1.041544 2.09375,-1.78125 0.49043,-0.730691 0.778351,-1.538789 0.71875,-2.3125 l 0,-0.03125 -0.5,-15.5625 z" fill="#334455" fill-opacity="1" stroke="none" marker="none" visibility="visible" display="inline" overflow="visible"></path><path style="text-indent:0;text-transform:none;direction:ltr;block-progression:tb;baseline-shift:baseline;color:#000000;enable-background:accumulate;" d="m 48.40625,37.5 c 0,0 -2.782653,6.599861 -3.5625,10.21875 -0.750129,3.480979 -0.934457,10.265063 -0.9375,10.375 -0.154795,0.825574 -1.270637,1.742735 -2.375,1.75 -0.552182,0.0036 -1.078812,-0.174753 -1.5625,-0.6875 -0.483688,-0.512747 -0.920475,-1.400704 -1.125,-2.78125 l -1.03125,0.15625 c 0.226437,1.528453 0.700476,2.628702 1.375,3.34375 0.674524,0.715048 1.531216,1.036596 2.34375,1.03125 1.625068,-0.01069 3.130082,-1.152106 3.40625,-2.625 l 0,-0.03125 0,-0.0625 c 0,0 0.235235,-6.959881 0.9375,-10.21875 0.725899,-3.368545 3.5,-10.0625 3.5,-10.0625 L 48.40625,37.5 z" fill="#334455" fill-opacity="1" stroke="none" marker="none" visibility="visible" display="inline" overflow="visible"></path><path style="text-indent:0;text-transform:none;direction:ltr;block-progression:tb;baseline-shift:baseline;color:#000000;enable-background:accumulate;" d="m 54.28125,44.3125 -2.875,4.03125 -0.03125,0.03125 -0.03125,0.0625 -3.15625,7.59375 0,0.03125 -0.03125,0.03125 c -0.262205,0.803004 -0.582474,1.191591 -0.875,1.375 -0.292526,0.183409 -0.575869,0.191779 -0.90625,0.125 -0.660761,-0.133559 -1.3125,-0.65625 -1.3125,-0.65625 l -0.6875,0.78125 c 0,0 0.754074,0.698629 1.78125,0.90625 0.513588,0.103811 1.131568,0.06731 1.6875,-0.28125 0.545622,-0.342096 0.969491,-0.979121 1.28125,-1.90625 l 0.03125,0 c 0.0035,-0.0105 -0.0035,-0.02067 0,-0.03125 l 3.15625,-7.5625 2.8125,-3.9375 -0.84375,-0.59375 z" fill="#334455" fill-opacity="1" stroke="none" marker="none" visibility="visible" display="inline" overflow="visible"></path></svg></g></svg>